# xmcd
#
# Track frame offsets: 
#        150
#        14557
#        25740
#        42547
#        60179
#        76311
#        94018
#        106321
#        121557
#        137497
#        150788
#        171418
#        189726
#        206018
#        229947
#
# Disc length: 3210 seconds
#
# Revision: 0
# Processed by: cddbd v1.5.1PL0 Copyright (c) Steve Scherf et al.
# Submitted via: ExactAudioCopy v0.95a5
#
DISCID=b60c880f
DTITLE=Kerry Kearney - Essential Kerry Kearney
DYEAR=2003
DGENRE=Blues
TTITLE0=Memphis High
TTITLE1=Trouble In Mind
TTITLE2=Little Playmate
TTITLE3=Make No Sound
TTITLE4=These Blues
TTITLE5=Paper/Steady Rollin Man
TTITLE6=Songs From The Levee
TTITLE7=World Train
TTITLE8=Kiss Every Woman
TTITLE9=Comin Round The Mt
TTITLE10=Thank You Jesus
TTITLE11=Fatherless Boy
TTITLE12=Build Me A Road
TTITLE13=Blues For Alexis
TTITLE14=Big Bone Blues
EXTD=
EXTT0=
EXTT1=
EXTT2=
EXTT3=
EXTT4=
EXTT5=
EXTT6=
EXTT7=
EXTT8=
EXTT9=
EXTT10=
EXTT11=
EXTT12=
EXTT13=
EXTT14=
PLAYORDER=
